<svg width="180" height="190" viewBox="0 0 180 190" fill="none" xmlns="http://www.w3.org/2000/svg">
<g clip-path="url(#clip0_125_418)">
<path fill-rule="evenodd" clip-rule="evenodd" d="M62.914 1.3908C67.5736 0.970164 72.6236 0.514969 74.1362 0.37966C75.6488 0.244352 81.6598 0.0818341 87.4941 0.0178568C180.014 -0.992544 203.931 40.9008 155.646 119.397C136.224 150.97 109.973 182.713 98.9606 187.939C90.124 192.133 80.6501 189.894 71.7789 181.516C48.1504 159.199 15.3121 109.549 5.32589 81.0419C-10.7987 35.012 10.0569 6.1663 62.914 1.3908Z" fill="#F43F5E"/>
<path d="M62.3551 97.1025C54.0601 97.1025 47.2088 94.3462 41.8013 88.8337C36.3938 83.3212 33.6901 76.5225 33.6901 68.4375C33.6901 60.3 36.3938 53.5012 41.8013 48.0412C47.2088 42.5287 54.0601 39.7725 62.3551 39.7725C67.3426 39.7725 71.9363 40.9537 76.1363 43.3162C80.3888 45.6262 83.6963 48.7762 86.0588 52.7662L76.6876 58.2C75.3226 55.7325 73.3801 53.8162 70.8601 52.4512C68.3401 51.0337 65.5051 50.325 62.3551 50.325C57.0001 50.325 52.6688 52.005 49.3613 55.365C46.1063 58.725 44.4788 63.0825 44.4788 68.4375C44.4788 73.74 46.1063 78.0712 49.3613 81.4312C52.6688 84.7912 57.0001 86.4712 62.3551 86.4712C65.5051 86.4712 68.3401 85.7887 70.8601 84.4238C73.4326 83.0062 75.3751 81.09 76.6876 78.675L86.0588 84.1087C83.6963 88.0987 80.4151 91.275 76.2151 93.6375C72.0151 95.9475 67.3951 97.1025 62.3551 97.1025ZM146.298 66.39V70.6425C146.298 78.5175 143.778 84.8962 138.738 89.7787C133.698 94.6612 127.188 97.1025 119.208 97.1025C110.703 97.1025 103.641 94.3462 98.0239 88.8337C92.4589 83.2687 89.6764 76.4962 89.6764 68.5162C89.6764 60.4837 92.4326 53.685 97.9451 48.12C103.51 42.555 110.388 39.7725 118.578 39.7725C123.723 39.7725 128.421 40.9537 132.674 43.3162C136.926 45.6262 140.234 48.7238 142.596 52.6088L133.304 57.9637C131.991 55.7062 129.996 53.8687 127.319 52.4512C124.694 51.0337 121.754 50.325 118.499 50.325C113.249 50.325 108.918 52.0575 105.505 55.5225C102.145 58.935 100.465 63.2662 100.465 68.5162C100.465 73.7137 102.171 78.0187 105.584 81.4312C109.049 84.7912 113.616 86.4712 119.286 86.4712C123.486 86.4712 126.951 85.5525 129.681 83.715C132.464 81.825 134.354 79.2525 135.351 75.9975H118.656V66.39H146.298Z" fill="white"/>
</g>
<defs>
<clipPath id="clip0_125_418">
<rect width="180" height="190" fill="white"/>
</clipPath>
</defs>
</svg>
