<svg width="180" height="190" viewBox="0 0 180 190" fill="none" xmlns="http://www.w3.org/2000/svg">
<g clip-path="url(#clip0_125_418)">
<path fill-rule="evenodd" clip-rule="evenodd" d="M62.914 1.3908C67.5736 0.970164 72.6236 0.514969 74.1362 0.37966C75.6488 0.244352 81.6598 0.0818341 87.4941 0.0178568C180.014 -0.992544 203.931 40.9008 155.646 119.397C136.224 150.97 109.973 182.713 98.9606 187.939C90.124 192.133 80.6501 189.894 71.7789 181.516C48.1504 159.199 15.3121 109.549 5.32589 81.0419C-10.7987 35.012 10.0569 6.1663 62.914 1.3908Z" fill="#F43F5E"/>
<path d="M90.2345 66.39V70.6425C90.2345 78.5175 87.7145 84.8962 82.6745 89.7787C77.6345 94.6612 71.1245 97.1025 63.1445 97.1025C54.6395 97.1025 47.5783 94.3462 41.9608 88.8337C36.3958 83.2687 33.6133 76.4962 33.6133 68.5162C33.6133 60.4837 36.3695 53.685 41.882 48.12C47.447 42.555 54.3245 39.7725 62.5145 39.7725C67.6595 39.7725 72.3583 40.9537 76.6108 43.3162C80.8633 45.6262 84.1708 48.7238 86.5333 52.6088L77.2408 57.9637C75.9283 55.7062 73.9333 53.8687 71.2558 52.4512C68.6308 51.0337 65.6908 50.325 62.4358 50.325C57.1858 50.325 52.8545 52.0575 49.442 55.5225C46.082 58.935 44.402 63.2662 44.402 68.5162C44.402 73.7137 46.1083 78.0187 49.5208 81.4312C52.9858 84.7912 57.5533 86.4712 63.2233 86.4712C67.4233 86.4712 70.8883 85.5525 73.6183 83.715C76.4008 81.825 78.2908 79.2525 79.2883 75.9975H62.5933V66.39H90.2345ZM124.109 97.1025C115.814 97.1025 108.963 94.3462 103.556 88.8337C98.1481 83.3212 95.4443 76.5225 95.4443 68.4375C95.4443 60.3 98.1481 53.5012 103.556 48.0412C108.963 42.5287 115.814 39.7725 124.109 39.7725C129.097 39.7725 133.691 40.9537 137.891 43.3162C142.143 45.6262 145.451 48.7762 147.813 52.7662L138.442 58.2C137.077 55.7325 135.134 53.8162 132.614 52.4512C130.094 51.0337 127.259 50.325 124.109 50.325C118.754 50.325 114.423 52.005 111.116 55.365C107.861 58.725 106.233 63.0825 106.233 68.4375C106.233 73.74 107.861 78.0712 111.116 81.4312C114.423 84.7912 118.754 86.4712 124.109 86.4712C127.259 86.4712 130.094 85.7887 132.614 84.4238C135.187 83.0062 137.129 81.09 138.442 78.675L147.813 84.1087C145.451 88.0987 142.169 91.275 137.969 93.6375C133.769 95.9475 129.149 97.1025 124.109 97.1025Z" fill="white"/>
</g>
<defs>
<clipPath id="clip0_125_418">
<rect width="180" height="190" fill="white"/>
</clipPath>
</defs>
</svg>
